<svg xmlns="http://www.w3.org/2000/svg" viewBox="0 0 43.13 56.29"><title>Asset 1</title><g id="Layer_2" data-name="Layer 2"><g id="Layer_1-2" data-name="Layer 1"><path d="M35.89,6.51H32.77A7.37,7.37,0,0,0,25.47,0H17.66a7.38,7.38,0,0,0-7.31,6.51H7.23C3.24,6.51,0,11,0,16.57a1.5,1.5,0,0,0,1.5,1.5h.36L4,52.32a4,4,0,0,0,4,4h27.2a4,4,0,0,0,4-3.88l2.13-34.33h.37a1.5,1.5,0,0,0,1.5-1.5C43.13,11,39.88,6.51,35.89,6.51ZM17.66,3h7.81a4.36,4.36,0,0,1,4.27,3.51H13.39A4.36,4.36,0,0,1,17.66,3ZM7.23,9.51H35.9c1.94,0,3.68,2.46,4.12,5.56H3.1C3.54,12,5.28,9.51,7.23,9.51Zm28.9,42.81a1,1,0,0,1-1,1H8a1,1,0,0,1-1-1.06L4.86,18.08h33.4Z"/><path d="M21.56,46.6a1.5,1.5,0,0,0,1.5-1.5V26.23a1.5,1.5,0,0,0-3,0V45.1A1.5,1.5,0,0,0,21.56,46.6Z"/><path d="M13.38,46.58h.09A1.5,1.5,0,0,0,14.88,45l-1.1-18.85a1.5,1.5,0,1,0-3,.18l1.1,18.84A1.49,1.49,0,0,0,13.38,46.58Z"/><path d="M29.65,46.58h.09a1.48,1.48,0,0,0,1.49-1.41l1.11-18.84a1.5,1.5,0,1,0-3-.18L28.24,45A1.5,1.5,0,0,0,29.65,46.58Z"/></g></g></svg>