<?xml version="1.0" encoding="utf-8"?>
<!-- Generator: Adobe Illustrator 24.1.1, SVG Export Plug-In . SVG Version: 6.00 Build 0)  -->
<svg version="1.1" id="Layer_1" xmlns="http://www.w3.org/2000/svg" xmlns:xlink="http://www.w3.org/1999/xlink" x="0px" y="0px"
	 viewBox="0 0 100 101.8" style="enable-background:new 0 0 100 101.8;" xml:space="preserve">
<style type="text/css">
	.st0{fill:#FF0000;}
</style>
<g>
	<path d="M90.7,73.1c0-0.1-0.1-0.1-0.1-0.2c-0.6-1.1-1.3-1.9-2.2-2.4c-6.2-3.8-10-14.1-11.2-30.7c-0.9-12.1-9-22.4-20.1-25.5
		c0.8-1.4,1.2-2.9,1.2-4.5c0-2.3-0.9-4.5-2.4-6.1C54.3,1.9,52.2,1,50,1c-4.6,0-8.3,3.9-8.3,8.7c0,1.6,0.4,3.2,1.2,4.5
		c-11.1,3.2-19.2,13.4-20.1,25.5c-1.2,16.6-5,26.9-11.2,30.7c-1.9,1.1-3.1,3.5-3.5,6.9c-0.3,2.2-0.4,6.8,1.3,8.5
		c0.5,0.5,1.1,0.8,1.7,0.8h24.7C37.1,93.8,43,99,50,99c7,0,12.9-5.2,14.1-12.4h24.7c0.7,0,1.3-0.3,1.7-0.8c1.7-1.7,1.6-6.3,1.3-8.5
		C91.7,75.6,91.3,74.2,90.7,73.1z M59.1,86.6c-1.1,4.3-4.8,7.3-9.1,7.3s-8-3-9.1-7.3H59.1z M61.8,61.9c-1.3,0-2.4,1.2-2.4,2.6
		c0,1.4,1.1,2.6,2.4,2.6h16.9c1,1.8,2.1,3.3,3.3,4.6H27.1c-1.3,0-2.4,1.2-2.4,2.6s1.1,2.6,2.4,2.6h59.7c0.1,0.5,0.2,1,0.2,1.5
		c0.1,1.4,0.1,2.5,0,3.1H13c-0.1-0.6-0.1-1.7,0-3.1c0.2-2.1,0.8-3.2,1.1-3.4c7.8-4.7,12.3-16.1,13.7-34.7
		C28.6,27.9,38.4,18.4,50,18.4c11.6,0,21.4,9.6,22.3,21.8c0.6,8.8,2,16.1,4.1,21.7C76.4,61.9,61.8,61.9,61.8,61.9z M50,13.2
		c-1.9,0-3.4-1.6-3.4-3.5s1.5-3.5,3.4-3.5s3.4,1.6,3.4,3.5S51.9,13.2,50,13.2z"/>
	<path d="M53.2,61.9h-1.4c-1.3,0-2.4,1.2-2.4,2.6s1.1,2.6,2.4,2.6h1.4c1.3,0,2.4-1.2,2.4-2.6S54.5,61.9,53.2,61.9z"/>
</g>
<circle class="st0" cx="81.7" cy="21.3" r="15.1"/>
</svg>
