<?xml version="1.0" encoding="utf-8"?>
<!-- Generator: Adobe Illustrator 24.1.1, SVG Export Plug-In . SVG Version: 6.00 Build 0)  -->
<svg version="1.1" id="Layer_1" xmlns="http://www.w3.org/2000/svg" xmlns:xlink="http://www.w3.org/1999/xlink" x="0px" y="0px"
	 viewBox="0 0 100 91.3" style="enable-background:new 0 0 100 91.3;" xml:space="preserve">
<path d="M98,15.5c0,3.3-2.7,6-6,6H50c-3.3,0-6-2.7-6-6s2.7-6,6-6h42C95.3,9.5,98,12.2,98,15.5z M11.3,25.8c2.3,2.3,6.1,2.3,8.5,0
	l15-15c2.3-2.4,2.3-6.2-0.1-8.5c-2.3-2.3-6.1-2.3-8.4,0L15.5,13l-3.3-3.3C9.9,7.5,6.1,7.5,3.8,9.9c-2.3,2.3-2.3,6.1,0,8.4L11.3,25.8
	z M92,41H50c-3.3,0-6,2.7-6,6s2.7,6,6,6h42c3.3,0,6-2.7,6-6S95.3,41,92,41z M11.3,57.3c2.3,2.3,6.1,2.3,8.5,0l15-15
	c2.4-2.3,2.4-6.1,0.1-8.5c-2.3-2.4-6.1-2.4-8.5-0.1c0,0,0,0-0.1,0.1L15.5,44.5l-3.3-3.3c-2.3-2.4-6.1-2.4-8.5-0.1
	c-2.4,2.3-2.4,6.1-0.1,8.5c0,0,0,0,0.1,0.1L11.3,57.3z M92,72.5H50c-3.3,0-6,2.7-6,6s2.7,6,6,6h42c3.3,0,6-2.7,6-6
	S95.3,72.5,92,72.5z M15.5,90.5c1.6,0,3.1-0.6,4.2-1.8l15-15c2.3-2.4,2.3-6.2-0.1-8.5c-2.3-2.3-6.1-2.3-8.4,0L15.5,76l-3.3-3.3
	c-2.4-2.3-6.2-2.3-8.5,0.1c-2.3,2.3-2.3,6.1,0,8.4l7.5,7.5C12.4,89.9,13.9,90.5,15.5,90.5z"/>
</svg>
