<svg xmlns="http://www.w3.org/2000/svg" xmlns:xlink="http://www.w3.org/1999/xlink" version="1.1" x="0px" y="0px" viewBox="0 0 100 125" style="enable-background:new 0 0 100 100;" xml:space="preserve"><g><path d="M31.6,57.4v17.8c0,9.4,6,17.4,15.2,20.5c1.1,0.5,2.2,0.5,3.1,0.5c0.9,0,2,0,3.1-0.4c9.1-2.7,15.3-11,15.3-20.5V57.4H53   V10.1h7.4v-6H39.6v6H47v47.3H31.6z M62.4,75.2c0,6.9-4.5,12.9-11.2,14.8l-0.3,0.1c-0.2,0-0.6,0-0.9,0s-0.7,0-0.9,0L48.9,90   c-6.8-2.2-11.2-8-11.2-14.8V63.4h24.7V75.2z"/></g><text x="0" y="115" fill="#000000" font-size="5px" font-weight="bold" font-family="'Helvetica Neue', Helvetica, Arial-Unicode, Arial, Sans-serif">Created by Noah</text><text x="0" y="120" fill="#000000" font-size="5px" font-weight="bold" font-family="'Helvetica Neue', Helvetica, Arial-Unicode, Arial, Sans-serif">from the Noun Project</text></svg>