<?xml version="1.0" encoding="utf-8"?>
<!-- Generator: Adobe Illustrator 24.1.1, SVG Export Plug-In . SVG Version: 6.00 Build 0)  -->
<svg version="1.1" id="Layer_1" xmlns="http://www.w3.org/2000/svg" xmlns:xlink="http://www.w3.org/1999/xlink" x="0px" y="0px"
	 viewBox="0 0 58.8 65.5" style="enable-background:new 0 0 58.8 65.5;" xml:space="preserve">
<g>
	<g>
		<path d="M29.1,32.1c8.6,0,15.5-6.9,15.5-15.5S37.7,1.2,29.1,1.2S13.6,8.1,13.6,16.7S20.5,32.1,29.1,32.1z M29.1,5.2
			c6.3,0,11.5,5.2,11.5,11.5s-5.2,11.4-11.5,11.4s-11.5-5.2-11.5-11.5S22.8,5.2,29.1,5.2z"/>
	</g>
	<g>
		<path d="M4.3,63.4h50.4c1.3,0,2.3-1.2,2.1-2.5c-3.3-14.8-14.2-25.6-27.3-25.6S5.5,46.1,2.3,60.9C2,62.2,3,63.4,4.3,63.4z
			 M29.5,39.3c10.2,0,19.3,8.1,22.7,20.1H6.8C10.2,47.4,19.3,39.3,29.5,39.3z"/>
	</g>
</g>
</svg>
