<?xml version="1.0" encoding="utf-8"?>
<!-- Generator: Adobe Illustrator 24.1.1, SVG Export Plug-In . SVG Version: 6.00 Build 0)  -->
<svg version="1.1" id="Layer_1" xmlns="http://www.w3.org/2000/svg" xmlns:xlink="http://www.w3.org/1999/xlink" x="0px" y="0px"
	 viewBox="0 0 96 96" style="enable-background:new 0 0 96 96;" xml:space="preserve">
<style type="text/css">
	.st0{fill:#FF0000;}
</style>
<path d="M94,45.9c0-0.1,0-0.1,0-0.2v-0.1v-0.1c0-0.1,0-0.1-0.1-0.2v-0.1l-0.1-0.1V45h-0.2v-0.1c0,0,0-0.1-0.1-0.1l-0.1-0.1l-0.1-0.1
	l0,0L80,31.2V8c0-3.3-3-6-6.8-6H22.8C19,2,16,4.7,16,8v23.2L2.6,44.6l0,0l-0.1,0.1l-0.1,0.1c0,0,0,0.1-0.1,0.1V45l0,0v0.1l-0.1,0.1
	v0.1c0,0.1,0,0.1,0,0.2v0.1v0.1c0,0.1,0,0.1,0,0.2L2,46l0,0v42c0,3.3,2.7,6,6,6h80c3.3,0,6-2.7,6-6V45.9L94,45.9
	C94,46,94,45.9,94,45.9z M88.7,45.5L80,50.3V36.9L88.7,45.5z M22.8,6h50.4C74.7,6,76,6.9,76,8v24.1l0,0v20.4L48,67.7L20,52.5V32.1
	l0,0V8C20,6.9,21.3,6,22.8,6z M16,50.3l-8.7-4.7L16,37V50.3z M88,90H8c-1.1,0-2-0.9-2-2V49.4l41,22.4c0.6,0.3,1.3,0.3,1.9,0L90,49.4
	V88C90,89.1,89.1,90,88,90z"/>
<path d="M31,35h34c1.1,0,2-0.9,2-2c0-1.1-0.9-2-2-2H31c-1.1,0-2,0.9-2,2C29,34.1,29.9,35,31,35z"/>
<path d="M31,20h24c1.1,0,2-0.9,2-2s-0.9-2-2-2H31c-1.1,0-2,0.9-2,2S29.9,20,31,20z"/>
<path d="M31,44h34c1.1,0,2-0.9,2-2s-0.9-2-2-2H31c-1.1,0-2,0.9-2,2S29.9,44,31,44z"/>
<path d="M31,53h34c1.1,0,2-0.9,2-2s-0.9-2-2-2H31c-1.1,0-2,0.9-2,2S29.9,53,31,53z"/>
<circle class="st0" cx="81" cy="19" r="15.1"/>
</svg>
